<mxfile host="Electron" agent="Mozilla/5.0 (Windows NT 10.0; Win64; x64) AppleWebKit/537.36 (KHTML, like Gecko) draw.io/25.0.2 Chrome/128.0.6613.186 Electron/32.2.5 Safari/537.36" version="25.0.2">
  <diagram name="Page-1" id="ygXxnBd7s1hwSegWjcl1">
    <mxGraphModel dx="1886" dy="579" grid="1" gridSize="10" guides="1" tooltips="1" connect="1" arrows="1" fold="1" page="1" pageScale="1" pageWidth="850" pageHeight="1100" math="0" shadow="0">
      <root>
        <mxCell id="0" />
        <mxCell id="1" parent="0" />
        <mxCell id="JqD8A8EJygZCDcvUrFHw-9" style="edgeStyle=orthogonalEdgeStyle;rounded=0;orthogonalLoop=1;jettySize=auto;html=1;" edge="1" parent="1" source="JqD8A8EJygZCDcvUrFHw-1" target="JqD8A8EJygZCDcvUrFHw-3">
          <mxGeometry relative="1" as="geometry" />
        </mxCell>
        <mxCell id="JqD8A8EJygZCDcvUrFHw-1" value="star" style="ellipse;whiteSpace=wrap;html=1;" vertex="1" parent="1">
          <mxGeometry x="-100" y="260" width="120" height="80" as="geometry" />
        </mxCell>
        <mxCell id="JqD8A8EJygZCDcvUrFHw-2" value="end" style="ellipse;whiteSpace=wrap;html=1;" vertex="1" parent="1">
          <mxGeometry x="730" y="260" width="120" height="80" as="geometry" />
        </mxCell>
        <mxCell id="JqD8A8EJygZCDcvUrFHw-11" style="edgeStyle=orthogonalEdgeStyle;rounded=0;orthogonalLoop=1;jettySize=auto;html=1;entryX=0.5;entryY=0;entryDx=0;entryDy=0;" edge="1" parent="1" source="JqD8A8EJygZCDcvUrFHw-3" target="JqD8A8EJygZCDcvUrFHw-5">
          <mxGeometry relative="1" as="geometry" />
        </mxCell>
        <mxCell id="JqD8A8EJygZCDcvUrFHw-3" value="int A" style="shape=parallelogram;perimeter=parallelogramPerimeter;whiteSpace=wrap;html=1;fixedSize=1;" vertex="1" parent="1">
          <mxGeometry x="40" y="180" width="120" height="60" as="geometry" />
        </mxCell>
        <mxCell id="JqD8A8EJygZCDcvUrFHw-12" style="edgeStyle=orthogonalEdgeStyle;rounded=0;orthogonalLoop=1;jettySize=auto;html=1;exitX=1;exitY=0.5;exitDx=0;exitDy=0;entryX=0.5;entryY=1;entryDx=0;entryDy=0;" edge="1" parent="1" source="JqD8A8EJygZCDcvUrFHw-4" target="JqD8A8EJygZCDcvUrFHw-5">
          <mxGeometry relative="1" as="geometry" />
        </mxCell>
        <mxCell id="JqD8A8EJygZCDcvUrFHw-4" value="int B" style="shape=parallelogram;perimeter=parallelogramPerimeter;whiteSpace=wrap;html=1;fixedSize=1;" vertex="1" parent="1">
          <mxGeometry x="40" y="360" width="120" height="60" as="geometry" />
        </mxCell>
        <mxCell id="JqD8A8EJygZCDcvUrFHw-13" style="edgeStyle=orthogonalEdgeStyle;rounded=0;orthogonalLoop=1;jettySize=auto;html=1;entryX=0;entryY=0.5;entryDx=0;entryDy=0;" edge="1" parent="1" source="JqD8A8EJygZCDcvUrFHw-5" target="JqD8A8EJygZCDcvUrFHw-6">
          <mxGeometry relative="1" as="geometry" />
        </mxCell>
        <mxCell id="JqD8A8EJygZCDcvUrFHw-5" value="printf(&quot; tong &quot;%d,A+B)" style="rhombus;whiteSpace=wrap;html=1;" vertex="1" parent="1">
          <mxGeometry x="220" y="240" width="140" height="120" as="geometry" />
        </mxCell>
        <mxCell id="JqD8A8EJygZCDcvUrFHw-14" style="edgeStyle=orthogonalEdgeStyle;rounded=0;orthogonalLoop=1;jettySize=auto;html=1;" edge="1" parent="1" source="JqD8A8EJygZCDcvUrFHw-6" target="JqD8A8EJygZCDcvUrFHw-2">
          <mxGeometry relative="1" as="geometry" />
        </mxCell>
        <mxCell id="JqD8A8EJygZCDcvUrFHw-6" value="tong=A+B" style="rounded=1;whiteSpace=wrap;html=1;" vertex="1" parent="1">
          <mxGeometry x="470" y="270" width="120" height="60" as="geometry" />
        </mxCell>
        <mxCell id="JqD8A8EJygZCDcvUrFHw-10" style="edgeStyle=orthogonalEdgeStyle;rounded=0;orthogonalLoop=1;jettySize=auto;html=1;exitX=0.5;exitY=1;exitDx=0;exitDy=0;entryX=0.563;entryY=0.033;entryDx=0;entryDy=0;entryPerimeter=0;" edge="1" parent="1" source="JqD8A8EJygZCDcvUrFHw-1" target="JqD8A8EJygZCDcvUrFHw-4">
          <mxGeometry relative="1" as="geometry" />
        </mxCell>
      </root>
    </mxGraphModel>
  </diagram>
</mxfile>
